{
  "accessors": [
    {
      "name": "AM84_027_00_1.1-Mesh_0_positions",
      "componentType": 5126,
      "count": 387,
      "min": [
        -12.16507339477539,
        8.645005226135254,
        -21.846214294433594
      ],
      "max": [
        24.643505096435547,
        64.01351165771484,
        9.968648910522461
      ],
      "type": "VEC3",
      "bufferView": 0,
      "byteOffset": 0
    },
    {
      "name": "AM84_027_00_1.1-Mesh_0_texcoords",
      "componentType": 5126,
      "count": 387,
      "min": [
        0.05689999833703041,
        0.0034000277519226074
      ],
      "max": [
        0.9990000128746033,
        0.9996999502182007
      ],
      "type": "VEC2",
      "bufferView": 2,
      "byteOffset": 0
    },
    {
      "name": "AM84_027_00_1.1-Mesh_0_indices",
      "componentType": 5123,
      "count": 669,
      "min": [
        0
      ],
      "max": [
        386
      ],
      "type": "SCALAR",
      "bufferView": 3,
      "byteOffset": 0
    },
    {
      "name": "AM84_027_00_1-Mesh_0_positions",
      "componentType": 5126,
      "count": 39200,
      "min": [
        -84.30121612548828,
        8.523146629333496,
        -50.68293380737305
      ],
      "max": [
        18.13817596435547,
        98.43694305419922,
        51.750396728515625
      ],
      "type": "VEC3",
      "bufferView": 0,
      "byteOffset": 4644
    },
    {
      "name": "AM84_027_00_1-Mesh_0_texcoords",
      "componentType": 5126,
      "count": 39200,
      "min": [
        -13.06450080871582,
        -12.064498901367188
      ],
      "max": [
        13.06450080871582,
        14.064498901367188
      ],
      "type": "VEC2",
      "bufferView": 2,
      "byteOffset": 3096
    },
    {
      "name": "AM84_027_00_1-Mesh_0_indices",
      "componentType": 5123,
      "count": 181254,
      "min": [
        0
      ],
      "max": [
        39199
      ],
      "type": "SCALAR",
      "bufferView": 3,
      "byteOffset": 1340
    },
    {
      "name": "tai.1-Mesh_0_positions",
      "componentType": 5126,
      "count": 2753,
      "min": [
        -68.97982788085938,
        95.98918914794922,
        -37.98148727416992
      ],
      "max": [
        8.180183410644531,
        146.53770446777344,
        38.86016845703125
      ],
      "type": "VEC3",
      "bufferView": 0,
      "byteOffset": 475044
    },
    {
      "name": "tai.1-Mesh_0_normals",
      "componentType": 5126,
      "count": 2753,
      "min": [
        -1,
        -1,
        -1
      ],
      "max": [
        1,
        1,
        1
      ],
      "type": "VEC3",
      "bufferView": 1,
      "byteOffset": 0
    },
    {
      "name": "tai.1-Mesh_0_texcoords",
      "componentType": 5126,
      "count": 2753,
      "min": [
        -0.030899999663233757,
        0
      ],
      "max": [
        1.0499999523162842,
        1
      ],
      "type": "VEC2",
      "bufferView": 2,
      "byteOffset": 316696
    },
    {
      "name": "tai.1-Mesh_0_indices",
      "componentType": 5123,
      "count": 5322,
      "min": [
        0
      ],
      "max": [
        2752
      ],
      "type": "SCALAR",
      "bufferView": 3,
      "byteOffset": 363848
    },
    {
      "name": "tou.1-Mesh_0_positions",
      "componentType": 5126,
      "count": 1425,
      "min": [
        -58.08677673339844,
        103.34849548339844,
        -129.77598571777344
      ],
      "max": [
        97.97882843017578,
        265.4911193847656,
        18.159975051879883
      ],
      "type": "VEC3",
      "bufferView": 0,
      "byteOffset": 508080
    },
    {
      "name": "tou.1-Mesh_0_normals",
      "componentType": 5126,
      "count": 1425,
      "min": [
        -0.989138126373291,
        -0.9953718185424805,
        -0.978218138217926
      ],
      "max": [
        0.988494336605072,
        1,
        1
      ],
      "type": "VEC3",
      "bufferView": 1,
      "byteOffset": 33036
    },
    {
      "name": "tou.1-Mesh_0_texcoords",
      "componentType": 5126,
      "count": 1425,
      "min": [
        0,
        0
      ],
      "max": [
        1,
        1
      ],
      "type": "VEC2",
      "bufferView": 2,
      "byteOffset": 338720
    },
    {
      "name": "tou.1-Mesh_0_indices",
      "componentType": 5123,
      "count": 2238,
      "min": [
        0
      ],
      "max": [
        1424
      ],
      "type": "SCALAR",
      "bufferView": 3,
      "byteOffset": 374492
    },
    {
      "name": "tou-Mesh_0_positions",
      "componentType": 5126,
      "count": 5385,
      "min": [
        -77.21269989013672,
        107.73800659179688,
        -120.28752136230469
      ],
      "max": [
        88.48799896240234,
        256.7529602050781,
        45.44027328491211
      ],
      "type": "VEC3",
      "bufferView": 0,
      "byteOffset": 525180
    },
    {
      "name": "tou-Mesh_0_normals",
      "componentType": 5126,
      "count": 5385,
      "min": [
        -1,
        -1,
        -1
      ],
      "max": [
        1,
        1,
        1
      ],
      "type": "VEC3",
      "bufferView": 1,
      "byteOffset": 50136
    },
    {
      "name": "tou-Mesh_0_texcoords",
      "componentType": 5126,
      "count": 5385,
      "min": [
        -0.02759999968111515,
        0.003600001335144043
      ],
      "max": [
        1.0830999612808228,
        0.9989999532699585
      ],
      "type": "VEC2",
      "bufferView": 2,
      "byteOffset": 350120
    },
    {
      "name": "tou-Mesh_0_indices",
      "componentType": 5123,
      "count": 12528,
      "min": [
        0
      ],
      "max": [
        5384
      ],
      "type": "SCALAR",
      "bufferView": 3,
      "byteOffset": 378968
    },
    {
      "name": "tou.1_1-Mesh_0_positions",
      "componentType": 5126,
      "count": 1659,
      "min": [
        -55.86653518676758,
        105.44482421875,
        -123.99775695800781
      ],
      "max": [
        92.14057922363281,
        259.56085205078125,
        16.349071502685547
      ],
      "type": "VEC3",
      "bufferView": 0,
      "byteOffset": 589800
    },
    {
      "name": "tou.1_1-Mesh_0_normals",
      "componentType": 5126,
      "count": 1659,
      "min": [
        -0.9990501403808594,
        -0.999686598777771,
        -0.9940239191055298
      ],
      "max": [
        0.9990501403808594,
        0.999686598777771,
        0.9940239191055298
      ],
      "type": "VEC3",
      "bufferView": 1,
      "byteOffset": 114756
    },
    {
      "name": "tou.1_1-Mesh_0_texcoords",
      "componentType": 5126,
      "count": 1659,
      "min": [
        0.00019999999494757503,
        0.46950000524520874
      ],
      "max": [
        1.0008000135421753,
        0.5891000032424927
      ],
      "type": "VEC2",
      "bufferView": 2,
      "byteOffset": 393200
    },
    {
      "name": "tou.1_1-Mesh_0_indices",
      "componentType": 5123,
      "count": 2979,
      "min": [
        0
      ],
      "max": [
        1658
      ],
      "type": "SCALAR",
      "bufferView": 3,
      "byteOffset": 404024
    }
  ],
  "asset": {
    "generator": "obj2gltf",
    "version": "2.0"
  },
  "buffers": [
    {
      "name": "雷达",
      "byteLength": 1560828,
      "uri": "data:application/octet-stream;base64,"
    }
  ],
  "bufferViews": [
    {
      "name": "bufferView_0",
      "buffer": 0,
      "byteLength": 609708,
      "byteOffset": 0,
      "byteStride": 12,
      "target": 34962
    },
    {
      "name": "bufferView_1",
      "buffer": 0,
      "byteLength": 134664,
      "byteOffset": 609708,
      "byteStride": 12,
      "target": 34962
    },
    {
      "name": "bufferView_2",
      "buffer": 0,
      "byteLength": 406472,
      "byteOffset": 744372,
      "byteStride": 8,
      "target": 34962
    },
    {
      "name": "bufferView_3",
      "buffer": 0,
      "byteLength": 409984,
      "byteOffset": 1150844,
      "target": 34963
    }
  ],
  "materials": [
    {
      "name": "材质.3",
      "pbrMetallicRoughness": {
        "baseColorFactor": [
          0.6700000166893,
          0.6700000166893,
          0.6700000166893,
          1
        ],
        "metallicFactor": 0,
        "roughnessFactor": 0.942
      },
      "emissiveFactor": [
        0,
        0,
        0
      ],
      "alphaMode": "OPAQUE",
      "doubleSided": false
    },
    {
      "name": "材质.1",
      "pbrMetallicRoughness": {
        "baseColorFactor": [
          0.98000001907349,
          0.98000001907349,
          0.98000001907349,
          1
        ],
        "metallicFactor": 0,
        "roughnessFactor": 1
      },
      "emissiveFactor": [
        0,
        0,
        0
      ],
      "alphaMode": "OPAQUE",
      "doubleSided": false
    },
    {
      "name": "材质.3-2",
      "pbrMetallicRoughness": {
        "baseColorFactor": [
          0.6700000166893,
          0.6700000166893,
          0.6700000166893,
          1
        ],
        "metallicFactor": 0,
        "roughnessFactor": 0.942
      },
      "emissiveFactor": [
        0,
        0,
        0
      ],
      "alphaMode": "OPAQUE",
      "doubleSided": false
    },
    {
      "name": "材质.4",
      "pbrMetallicRoughness": {
        "baseColorFactor": [
          1,
          1,
          1,
          1
        ],
        "metallicFactor": 0,
        "roughnessFactor": 0.904
      },
      "emissiveFactor": [
        0,
        0,
        0
      ],
      "alphaMode": "OPAQUE",
      "doubleSided": false
    },
    {
      "name": "材质",
      "pbrMetallicRoughness": {
        "baseColorFactor": [
          1,
          1,
          1,
          1
        ],
        "metallicFactor": 0,
        "roughnessFactor": 0.942
      },
      "emissiveFactor": [
        0,
        0,
        0
      ],
      "alphaMode": "OPAQUE",
      "doubleSided": false
    }
  ],
  "meshes": [
    {
      "name": "AM84_027_00_1.1-Mesh",
      "primitives": [
        {
          "attributes": {
            "POSITION": 0,
            "TEXCOORD_0": 1
          },
          "indices": 2,
          "material": 0,
          "mode": 4
        }
      ]
    },
    {
      "name": "AM84_027_00_1-Mesh",
      "primitives": [
        {
          "attributes": {
            "POSITION": 3,
            "TEXCOORD_0": 4
          },
          "indices": 5,
          "material": 1,
          "mode": 4
        }
      ]
    },
    {
      "name": "tai.1-Mesh",
      "primitives": [
        {
          "attributes": {
            "POSITION": 6,
            "NORMAL": 7,
            "TEXCOORD_0": 8
          },
          "indices": 9,
          "material": 2,
          "mode": 4
        }
      ]
    },
    {
      "name": "tou.1-Mesh",
      "primitives": [
        {
          "attributes": {
            "POSITION": 10,
            "NORMAL": 11,
            "TEXCOORD_0": 12
          },
          "indices": 13,
          "material": 3,
          "mode": 4
        }
      ]
    },
    {
      "name": "tou-Mesh",
      "primitives": [
        {
          "attributes": {
            "POSITION": 14,
            "NORMAL": 15,
            "TEXCOORD_0": 16
          },
          "indices": 17,
          "material": 4,
          "mode": 4
        }
      ]
    },
    {
      "name": "tou.1_1-Mesh",
      "primitives": [
        {
          "attributes": {
            "POSITION": 18,
            "NORMAL": 19,
            "TEXCOORD_0": 20
          },
          "indices": 21,
          "material": 2,
          "mode": 4
        }
      ]
    }
  ],
  "nodes": [
    {
      "name": "AM84_027_00_1.1",
      "mesh": 0
    },
    {
      "name": "AM84_027_00_1",
      "mesh": 1
    },
    {
      "name": "tai.1",
      "mesh": 2
    },
    {
      "name": "tou.1",
      "mesh": 3
    },
    {
      "name": "tou",
      "mesh": 4
    },
    {
      "name": "tou.1_1",
      "mesh": 5
    }
  ],
  "scene": 0,
  "scenes": [
    {
      "nodes": [
        0,
        1,
        2,
        3,
        4,
        5
      ]
    }
  ]
}
