{
  "accessors": [
    {
      "name": "Dish-Mesh_0_positions",
      "componentType": 5126,
      "count": 57329,
      "min": [
        -529.9169921875,
        5.844540119171143,
        -225.359375
      ],
      "max": [
        102.9396743774414,
        309.08538818359375,
        142.61325073242188
      ],
      "type": "VEC3",
      "bufferView": 0,
      "byteOffset": 0
    },
    {
      "name": "Dish-Mesh_0_texcoords",
      "componentType": 5126,
      "count": 57329,
      "min": [
        0.0044249603524804115,
        0.004425525665283203
      ],
      "max": [
        0.9955750107765198,
        0.9955744743347168
      ],
      "type": "VEC2",
      "bufferView": 1,
      "byteOffset": 0
    },
    {
      "name": "Dish-Mesh_0_indices",
      "componentType": 5123,
      "count": 181668,
      "min": [
        0
      ],
      "max": [
        57328
      ],
      "type": "SCALAR",
      "bufferView": 2,
      "byteOffset": 0
    }
  ],
  "asset": {
    "generator": "obj2gltf",
    "version": "2.0"
  },
  "buffers": [
    {
      "name": "雷达车",
      "byteLength": 2055808,
      "uri": "data:application/octet-stream;base64,"
    }
  ],
  "bufferViews": [
    {
      "name": "bufferView_0",
      "buffer": 0,
      "byteLength": 687948,
      "byteOffset": 0,
      "byteStride": 12,
      "target": 34962
    },
    {
      "name": "bufferView_1",
      "buffer": 0,
      "byteLength": 458632,
      "byteOffset": 687948,
      "byteStride": 8,
      "target": 34962
    },
    {
      "name": "bufferView_2",
      "buffer": 0,
      "byteLength": 363336,
      "byteOffset": 1146580,
      "target": 34963
    },
    {
      "buffer": 0,
      "byteOffset": 1509916,
      "byteLength": 545890
    }
  ],
  "images": [
    {
      "name": "Dish.1表面颜色",
      "mimeType": "image/jpeg",
      "bufferView": 3
    }
  ],
  "materials": [
    {
      "name": "Dish",
      "pbrMetallicRoughness": {
        "baseColorTexture": {
          "index": 0
        },
        "baseColorFactor": [
          1,
          1,
          1,
          1
        ],
        "metallicFactor": 0,
        "roughnessFactor": 0.95
      },
      "emissiveFactor": [
        0,
        0,
        0
      ],
      "alphaMode": "OPAQUE",
      "doubleSided": false
    }
  ],
  "meshes": [
    {
      "name": "Dish-Mesh",
      "primitives": [
        {
          "attributes": {
            "POSITION": 0,
            "TEXCOORD_0": 1
          },
          "indices": 2,
          "material": 0,
          "mode": 4
        }
      ]
    }
  ],
  "nodes": [
    {
      "name": "Dish",
      "mesh": 0
    }
  ],
  "samplers": [
    {
      "magFilter": 9729,
      "minFilter": 9986,
      "wrapS": 10497,
      "wrapT": 10497
    }
  ],
  "scene": 0,
  "scenes": [
    {
      "nodes": [
        0
      ]
    }
  ],
  "textures": [
    {
      "name": "Dish.1表面颜色",
      "sampler": 0,
      "source": 0
    }
  ]
}
