{
  "accessors": [
    {
      "name": "圆柱.3-Mesh_0_positions",
      "componentType": 5126,
      "count": 591,
      "min": [
        -0.5506320595741272,
        387.4288635253906,
        0.05401741340756416
      ],
      "max": [
        33.454280853271484,
        423.6811828613281,
        58.1473388671875
      ],
      "type": "VEC3",
      "bufferView": 0,
      "byteOffset": 0
    },
    {
      "name": "圆柱.3-Mesh_0_normals",
      "componentType": 5126,
      "count": 591,
      "min": [
        -1,
        -1,
        -0.866025447845459
      ],
      "max": [
        0.9063076376914978,
        1,
        1
      ],
      "type": "VEC3",
      "bufferView": 1,
      "byteOffset": 0
    },
    {
      "name": "圆柱.3-Mesh_0_texcoords",
      "componentType": 5126,
      "count": 591,
      "min": [
        0,
        0
      ],
      "max": [
        1,
        1
      ],
      "type": "VEC2",
      "bufferView": 2,
      "byteOffset": 0
    },
    {
      "name": "圆柱.3-Mesh_0_indices",
      "componentType": 5123,
      "count": 2484,
      "min": [
        0
      ],
      "max": [
        590
      ],
      "type": "SCALAR",
      "bufferView": 3,
      "byteOffset": 0
    },
    {
      "name": "圆柱.1-Mesh_0_positions",
      "componentType": 5126,
      "count": 591,
      "min": [
        -0.5506320595741272,
        387.4288635253906,
        -56.993186950683594
      ],
      "max": [
        40.2705078125,
        423.6811828613281,
        -0.034370142966508865
      ],
      "type": "VEC3",
      "bufferView": 0,
      "byteOffset": 7092
    },
    {
      "name": "圆柱.1-Mesh_0_normals",
      "componentType": 5126,
      "count": 591,
      "min": [
        -0.9063082337379456,
        -1,
        -0.8660282492637634
      ],
      "max": [
        1,
        1,
        1
      ],
      "type": "VEC3",
      "bufferView": 1,
      "byteOffset": 7092
    },
    {
      "name": "圆柱.1-Mesh_0_texcoords",
      "componentType": 5126,
      "count": 591,
      "min": [
        0,
        0
      ],
      "max": [
        1,
        1
      ],
      "type": "VEC2",
      "bufferView": 2,
      "byteOffset": 4728
    },
    {
      "name": "圆柱.1-Mesh_0_indices",
      "componentType": 5123,
      "count": 2484,
      "min": [
        0
      ],
      "max": [
        590
      ],
      "type": "SCALAR",
      "bufferView": 3,
      "byteOffset": 4968
    },
    {
      "name": "球体.1-Mesh_0_positions",
      "componentType": 5126,
      "count": 323,
      "min": [
        -5.020066261291504,
        399.8440856933594,
        -5.582855701446533
      ],
      "max": [
        5.56899356842041,
        410.43316650390625,
        5.006204128265381
      ],
      "type": "VEC3",
      "bufferView": 0,
      "byteOffset": 14184
    },
    {
      "name": "球体.1-Mesh_0_normals",
      "componentType": 5126,
      "count": 323,
      "min": [
        -1,
        -1,
        -1
      ],
      "max": [
        1,
        1,
        1
      ],
      "type": "VEC3",
      "bufferView": 1,
      "byteOffset": 14184
    },
    {
      "name": "球体.1-Mesh_0_texcoords",
      "componentType": 5126,
      "count": 323,
      "min": [
        0,
        0
      ],
      "max": [
        1,
        1
      ],
      "type": "VEC2",
      "bufferView": 2,
      "byteOffset": 9456
    },
    {
      "name": "球体.1-Mesh_0_indices",
      "componentType": 5123,
      "count": 1584,
      "min": [
        0
      ],
      "max": [
        322
      ],
      "type": "SCALAR",
      "bufferView": 3,
      "byteOffset": 9936
    },
    {
      "name": "圆柱-Mesh_0_positions",
      "componentType": 5126,
      "count": 1298,
      "min": [
        -12.892258644104004,
        0,
        -12.822178840637207
      ],
      "max": [
        13.38473892211914,
        401.08245849609375,
        13.454819679260254
      ],
      "type": "VEC3",
      "bufferView": 0,
      "byteOffset": 18060
    },
    {
      "name": "圆柱-Mesh_0_normals",
      "componentType": 5126,
      "count": 1298,
      "min": [
        -1,
        -1,
        -1
      ],
      "max": [
        1,
        1,
        1
      ],
      "type": "VEC3",
      "bufferView": 1,
      "byteOffset": 18060
    },
    {
      "name": "圆柱-Mesh_0_texcoords",
      "componentType": 5126,
      "count": 1298,
      "min": [
        0,
        0
      ],
      "max": [
        1,
        1
      ],
      "type": "VEC2",
      "bufferView": 2,
      "byteOffset": 12040
    },
    {
      "name": "圆柱-Mesh_0_indices",
      "componentType": 5123,
      "count": 1938,
      "min": [
        0
      ],
      "max": [
        1297
      ],
      "type": "SCALAR",
      "bufferView": 3,
      "byteOffset": 13104
    },
    {
      "name": "圆柱.2-Mesh_0_positions",
      "componentType": 5126,
      "count": 591,
      "min": [
        -65.243896484375,
        387.4288635253906,
        -16.839906692504883
      ],
      "max": [
        -0.5932519435882568,
        423.6811828613281,
        1.2895939350128174
      ],
      "type": "VEC3",
      "bufferView": 0,
      "byteOffset": 33636
    },
    {
      "name": "圆柱.2-Mesh_0_normals",
      "componentType": 5126,
      "count": 591,
      "min": [
        -1,
        -1,
        -1
      ],
      "max": [
        1,
        1,
        1
      ],
      "type": "VEC3",
      "bufferView": 1,
      "byteOffset": 33636
    },
    {
      "name": "圆柱.2-Mesh_0_texcoords",
      "componentType": 5126,
      "count": 591,
      "min": [
        0,
        0
      ],
      "max": [
        1,
        1
      ],
      "type": "VEC2",
      "bufferView": 2,
      "byteOffset": 22424
    },
    {
      "name": "圆柱.2-Mesh_0_indices",
      "componentType": 5123,
      "count": 2484,
      "min": [
        0
      ],
      "max": [
        590
      ],
      "type": "SCALAR",
      "bufferView": 3,
      "byteOffset": 16980
    }
  ],
  "asset": {
    "generator": "obj2gltf",
    "version": "2.0"
  },
  "buffers": [
    {
      "name": "风向",
      "byteLength": 130556,
      "uri": "data:application/octet-stream;base64,"
    }
  ],
  "bufferViews": [
    {
      "name": "bufferView_0",
      "buffer": 0,
      "byteLength": 40728,
      "byteOffset": 0,
      "byteStride": 12,
      "target": 34962
    },
    {
      "name": "bufferView_1",
      "buffer": 0,
      "byteLength": 40728,
      "byteOffset": 40728,
      "byteStride": 12,
      "target": 34962
    },
    {
      "name": "bufferView_2",
      "buffer": 0,
      "byteLength": 27152,
      "byteOffset": 81456,
      "byteStride": 8,
      "target": 34962
    },
    {
      "name": "bufferView_3",
      "buffer": 0,
      "byteLength": 21948,
      "byteOffset": 108608,
      "target": 34963
    }
  ],
  "materials": [
    {
      "name": "Car Paint - Grey Metallic 02.2",
      "pbrMetallicRoughness": {
        "baseColorFactor": [
          0.37999999523163,
          0.37999999523163,
          0.37999999523163,
          1
        ],
        "metallicFactor": 0,
        "roughnessFactor": 0.903
      },
      "emissiveFactor": [
        0,
        0,
        0
      ],
      "alphaMode": "OPAQUE",
      "doubleSided": false
    },
    {
      "name": "Car Paint - Grey Metallic 02.1",
      "pbrMetallicRoughness": {
        "baseColorFactor": [
          0.96039998531342,
          0.98000001907349,
          0.97444665431976,
          1
        ],
        "metallicFactor": 0,
        "roughnessFactor": 0.903
      },
      "emissiveFactor": [
        0,
        0,
        0
      ],
      "alphaMode": "OPAQUE",
      "doubleSided": false
    }
  ],
  "meshes": [
    {
      "name": "圆柱.3-Mesh",
      "primitives": [
        {
          "attributes": {
            "POSITION": 0,
            "NORMAL": 1,
            "TEXCOORD_0": 2
          },
          "indices": 3,
          "material": 0,
          "mode": 4
        }
      ]
    },
    {
      "name": "圆柱.1-Mesh",
      "primitives": [
        {
          "attributes": {
            "POSITION": 4,
            "NORMAL": 5,
            "TEXCOORD_0": 6
          },
          "indices": 7,
          "material": 0,
          "mode": 4
        }
      ]
    },
    {
      "name": "球体.1-Mesh",
      "primitives": [
        {
          "attributes": {
            "POSITION": 8,
            "NORMAL": 9,
            "TEXCOORD_0": 10
          },
          "indices": 11,
          "material": 0,
          "mode": 4
        }
      ]
    },
    {
      "name": "圆柱-Mesh",
      "primitives": [
        {
          "attributes": {
            "POSITION": 12,
            "NORMAL": 13,
            "TEXCOORD_0": 14
          },
          "indices": 15,
          "material": 1,
          "mode": 4
        }
      ]
    },
    {
      "name": "圆柱.2-Mesh",
      "primitives": [
        {
          "attributes": {
            "POSITION": 16,
            "NORMAL": 17,
            "TEXCOORD_0": 18
          },
          "indices": 19,
          "material": 0,
          "mode": 4
        }
      ]
    }
  ],
  "nodes": [
    {
      "name": "圆柱.3",
      "mesh": 0
    },
    {
      "name": "圆柱.1",
      "mesh": 1
    },
    {
      "name": "球体.1",
      "mesh": 2
    },
    {
      "name": "圆柱",
      "mesh": 3
    },
    {
      "name": "圆柱.2",
      "mesh": 4
    }
  ],
  "scene": 0,
  "scenes": [
    {
      "nodes": [
        0,
        1,
        2,
        3,
        4
      ]
    }
  ]
}
